# Blender v2.82 (sub 7) OBJ File: ''
# www.blender.org
o Icosphere.002
v 1.321377 0.619906 0.786998
v 1.192318 1.157919 1.028200
v 1.004066 0.863377 0.960114
v 1.564795 0.877994 0.699837
v 0.862330 0.925800 0.572947
v 1.242793 0.968240 0.343712
v 1.387091 1.326715 0.843933
v 1.092028 1.275860 0.987411
v 0.666479 1.210602 0.851604
v 1.024428 1.246715 0.396005
v 1.403260 1.303276 0.448343
v 1.166079 1.434315 0.690577
v 0.105004 -0.583296 0.055984
v -0.243897 0.579201 0.608606
v -0.643057 -0.052378 0.447847
v 0.622177 -0.030144 -0.116905
v -1.001249 0.146584 -0.310390
v -0.060413 0.164379 -0.772062
v 0.179658 0.949642 0.239683
v -0.513142 0.872030 0.535362
v -1.493199 0.767921 0.224079
v -0.898725 1.185928 -0.578286
v 0.193411 0.957911 -0.549706
v -0.496057 1.402747 -0.033047
vn 0.2244 -0.3533 0.9082
vn 0.5380 -0.2340 0.8098
vn -0.5786 -0.8116 0.0810
vn -0.2556 -0.7817 -0.5689
vn 0.4753 -0.6489 -0.5942
vn 0.6734 0.0294 0.7387
vn -0.3612 0.0153 0.9324
vn -0.7323 -0.6615 0.1614
vn -0.4850 -0.2215 -0.8460
vn 0.7186 -0.1309 -0.6830
vn 0.2963 0.5274 0.7963
vn -0.3043 0.0018 0.9526
vn -0.7872 0.0592 -0.6138
vn 0.0949 0.2551 -0.9623
vn 0.9314 0.3636 0.0165
vn 0.0863 0.8698 0.4858
vn -0.2629 0.8769 0.4025
vn -0.4691 0.8296 -0.3028
vn -0.0561 0.8541 -0.5170
vn 0.4565 0.8891 -0.0340
vn 0.2145 -0.3661 0.9055
vn 0.5231 -0.2328 0.8199
vn -0.5612 -0.8263 0.0483
vn -0.2855 -0.7390 -0.6102
vn 0.4452 -0.6186 -0.6475
vn 0.6487 0.0161 0.7609
vn -0.3073 -0.0468 0.9505
vn -0.3090 -0.0465 0.9499
vn -0.3081 -0.0466 0.9502
vn -0.7067 -0.6908 0.1526
vn -0.4301 -0.1853 -0.8836
vn 0.6897 -0.0178 -0.7239
vn 0.2982 0.4805 0.8248
vn -0.2977 -0.0484 0.9534
vn -0.7795 -0.0831 -0.6209
vn 0.0767 0.2462 -0.9662
vn 0.9139 0.4054 0.0202
vn 0.2066 0.7120 0.6710
vn -0.2815 0.7056 0.6503
vn -0.5268 0.8484 0.0517
vn 0.1912 0.8554 -0.4814
vn 0.5517 0.8338 0.0183
s 1
f 1//1 2//1 3//1
f 2//2 1//2 4//2
f 1//3 3//3 5//3
f 1//4 5//4 6//4
f 1//5 6//5 4//5
f 2//6 4//6 7//6
f 3//7 2//7 8//7
f 5//8 3//8 9//8
f 6//9 5//9 10//9
f 4//10 6//10 11//10
f 2//11 7//11 8//11
f 3//12 8//12 9//12
f 5//13 9//13 10//13
f 6//14 10//14 11//14
f 4//15 11//15 7//15
f 8//16 7//16 12//16
f 9//17 8//17 12//17
f 10//18 9//18 12//18
f 11//19 10//19 12//19
f 7//20 11//20 12//20
f 13//21 14//21 15//21
f 14//22 13//22 16//22
f 13//23 15//23 17//23
f 13//24 17//24 18//24
f 13//25 18//25 16//25
f 14//26 16//26 19//26
f 15//27 14//28 20//29
f 17//30 15//30 21//30
f 18//31 17//31 22//31
f 16//32 18//32 23//32
f 14//33 19//33 20//33
f 15//27 20//29 21//34
f 17//35 21//35 22//35
f 18//36 22//36 23//36
f 16//37 23//37 19//37
f 20//38 19//38 24//38
f 21//39 20//39 24//39
f 22//40 21//40 24//40
f 23//41 22//41 24//41
f 19//42 23//42 24//42
