# Blender v2.82 (sub 7) OBJ File: ''
# www.blender.org
o Icosphere
v 0.006546 -0.924018 0.312879
v 0.780699 -0.480622 1.335687
v -0.264779 -0.499576 1.176303
v 0.753236 -0.387388 0.247326
v -0.912734 -0.405485 0.142632
v -0.284831 -0.327744 -0.556733
v 1.001341 0.300037 1.254011
v 0.376454 0.235267 1.611190
v -0.781455 0.284728 0.920970
v -0.727210 0.448562 -0.239912
v 0.306384 0.432703 -0.136078
v 0.079006 0.743416 0.721171
vn -0.0489 -0.9024 0.4282
vn 0.5766 -0.8126 -0.0842
vn -0.5103 -0.8244 0.2449
vn -0.3808 -0.8172 -0.4327
vn 0.4294 -0.6713 -0.6042
vn 0.9599 -0.2763 -0.0479
vn -0.1294 -0.4190 0.8987
vn -0.8004 -0.3751 0.4676
vn -0.7287 -0.1418 -0.6700
vn 0.6106 -0.0371 -0.7911
vn 0.4996 -0.0507 0.8648
vn -0.5130 -0.0592 0.8564
vn -0.9786 0.2051 -0.0168
vn 0.0970 0.4230 -0.9009
vn 0.8685 0.2828 -0.4072
vn 0.1644 0.8793 0.4471
vn -0.2919 0.7853 0.5459
vn -0.4489 0.8875 0.1043
vn 0.0475 0.9431 -0.3292
vn 0.5058 0.8453 -0.1722
s 1
f 1//1 2//1 3//1
f 2//2 1//2 4//2
f 1//3 3//3 5//3
f 1//4 5//4 6//4
f 1//5 6//5 4//5
f 2//6 4//6 7//6
f 3//7 2//7 8//7
f 5//8 3//8 9//8
f 6//9 5//9 10//9
f 4//10 6//10 11//10
f 2//11 7//11 8//11
f 3//12 8//12 9//12
f 5//13 9//13 10//13
f 6//14 10//14 11//14
f 4//15 11//15 7//15
f 8//16 7//16 12//16
f 9//17 8//17 12//17
f 10//18 9//18 12//18
f 11//19 10//19 12//19
f 7//20 11//20 12//20
